<?xml version="1.0" encoding="utf-8"?>
<!-- Generator: Adobe Illustrator 16.0.0, SVG Export Plug-In . SVG Version: 6.00 Build 0)  -->
<!DOCTYPE svg PUBLIC "-//W3C//DTD SVG 1.1//EN" "http://www.w3.org/Graphics/SVG/1.1/DTD/svg11.dtd">
<svg version="1.1" id="Layer_1" xmlns="http://www.w3.org/2000/svg" xmlns:xlink="http://www.w3.org/1999/xlink" x="0px" y="0px"
	 width="1617.162px" height="1077.108px" viewBox="0 0 1617.162 1077.108" enable-background="new 0 0 1617.162 1077.108"
	 xml:space="preserve">
<g>
	<g>
		<polygon fill="#00AEEF" points="1239.591,969.675 1066.074,969.675 1066.074,1062.106 1332.023,1062.106 1332.023,796.159 
			1239.591,796.159 		"/>
		<polygon fill="#00AEEF" points="1239.599,107.429 1239.599,280.95 1332.023,280.95 1332.023,15.002 1066.083,15.002 
			1066.083,107.429 		"/>
		<polygon fill="#00AEEF" points="377.969,107.429 551.486,107.429 551.486,15.006 285.538,15.006 285.538,280.946 377.969,280.946 
					"/>
		<polygon fill="#00AEEF" points="377.562,969.675 377.562,796.159 285.138,796.159 285.138,1062.106 551.08,1062.106 
			551.08,969.675 		"/>
	</g>
	<path fill="#00AEEF" d="M1214.334,352.517V132.803h-811.5v219.744c8.905,3.576,17.487,7.788,25.709,12.553
		c29.517,17.108,54.255,41.521,71.758,70.774c17.97,30.022,28.314,65.133,28.314,102.676c0,84.301-52.064,156.398-125.781,186.007
		v219.748h811.5V724.587c-73.754-29.586-125.856-101.705-125.856-186.037C1088.478,454.22,1140.581,382.106,1214.334,352.517z"/>
	<path fill="#FFFFFF" d="M577.134,352.167c0-35.766-28.99-64.765-64.765-64.765c-33.59,0-61.196,25.577-64.441,58.313
		c29.519,17.108,54.256,41.521,71.759,70.772C552.005,412.847,577.134,385.456,577.134,352.167z"/>
	<path fill="#FFFFFF" d="M932.179,319.092L781.471,469.789l-94.042-94.048L535.64,527.53c0.135,3.132,0.218,6.279,0.218,9.441
		c0,3.16-0.083,6.308-0.218,9.439v211.602h504.756h41.142V623.898V468.449L932.179,319.092z"/>
	
		<rect x="455.11" y="473.387" fill="#00AEEF" stroke="#FFFFFF" stroke-width="11.5633" stroke-miterlimit="10" width="706.948" height="130.327"/>
	<g>
		<rect x="669.167" y="473.387" fill="#FFFFFF" width="22.223" height="51.756"/>
		<rect x="797.469" y="473.387" fill="#FFFFFF" width="22.23" height="51.756"/>
		<rect x="925.78" y="473.387" fill="#FFFFFF" width="22.23" height="51.756"/>
	</g>
</g>
</svg>
