<?xml version="1.0" encoding="utf-8"?>
<!-- Generator: Adobe Illustrator 16.0.0, SVG Export Plug-In . SVG Version: 6.00 Build 0)  -->
<!DOCTYPE svg PUBLIC "-//W3C//DTD SVG 1.1//EN" "http://www.w3.org/Graphics/SVG/1.1/DTD/svg11.dtd">
<svg version="1.1" id="Layer_1" xmlns="http://www.w3.org/2000/svg" xmlns:xlink="http://www.w3.org/1999/xlink" x="0px" y="0px"
	 width="1161.117px" height="885.088px" viewBox="0 0 1161.117 885.088" enable-background="new 0 0 1161.117 885.088"
	 xml:space="preserve">
<g>
	<polygon fill="#00AEEF" points="964.802,710.927 834.451,710.927 834.451,780.364 1034.239,780.364 1034.239,580.576 
		964.802,580.576 	"/>
	<polygon fill="#00AEEF" points="964.802,116.473 964.802,246.829 1034.233,246.829 1034.233,47.042 834.451,47.042 
		834.451,116.473 	"/>
	<polygon fill="#00AEEF" points="181.75,116.45 312.107,116.45 312.107,47.019 112.319,47.019 112.319,246.801 181.75,246.801 	"/>
	<polygon fill="#00AEEF" points="181.756,711.108 181.756,580.757 112.325,580.757 112.325,780.544 312.107,780.544 
		312.107,711.108 	"/>
	<path fill="none" d="M338.195,413.68c0-2.783-0.068-5.548-0.187-8.297v16.593C338.127,419.222,338.195,416.462,338.195,413.68z"/>
	<path fill="#00AEEF" d="M944.064,234.964v-97.736H202.506v97.912c16.531,4.586,32.128,11.401,46.459,20.105
		c3.11,1.889,6.153,3.885,9.145,5.949c23.934,16.548,43.784,38.575,57.736,64.279c0.006,0.011,0.011,0.022,0.017,0.034
		c12.985,23.934,20.874,51.04,22.146,79.876c0.119,2.749,0.187,5.514,0.187,8.297c0,2.782-0.068,5.542-0.187,8.296
		c-3.591,81.483-59.817,149.252-135.503,170.244v12.951v84.969h741.558v-97.744c-53.489-14.631-97.313-52.624-119.85-102.323
		c-10.559-23.289-16.463-49.146-16.463-76.393c0-21.083,3.535-41.335,10.021-60.219C837.556,295.895,884.903,251.15,944.064,234.964
		z"/>
	<path fill="#FFFFFF" d="M666.13,248.814l-113.217,113.21l-70.647-70.653L368.237,405.4c0.102,2.353,0.164,4.717,0.164,7.092
		c0,2.375-0.063,4.742-0.164,7.092v158.961h379.189h30.906V477.798V361.017L666.13,248.814z"/>
	
		<rect x="307.741" y="364.727" fill="#00AEEF" stroke="#FFFFFF" stroke-width="8.6867" stroke-miterlimit="10" width="531.082" height="97.906"/>
	<g>
		<rect x="468.546" y="364.727" fill="#FFFFFF" width="16.694" height="38.881"/>
		<rect x="564.931" y="364.727" fill="#FFFFFF" width="16.701" height="38.881"/>
		<rect x="661.323" y="364.727" fill="#FFFFFF" width="16.7" height="38.881"/>
	</g>
	<path fill="#FFFFFF" d="M329.757,300.807c15.796-8.045,26.637-24.412,26.637-43.346c0-26.869-21.785-48.653-48.653-48.653
		c-20.113,0-37.371,12.204-44.779,29.611C290.184,253.203,313.17,274.767,329.757,300.807z"/>
</g>
</svg>
